<mxfile host="app.diagrams.net" agent="Mozilla/5.0 (Windows NT 10.0; Win64; x64) AppleWebKit/537.36 (KHTML, like Gecko) Chrome/128.0.0.0 Safari/537.36" version="24.7.16">
  <diagram id="C5RBs43oDa-KdzZeNtuy" name="Page-1">
    <mxGraphModel dx="2868" dy="2885" grid="1" gridSize="10" guides="1" tooltips="1" connect="1" arrows="1" fold="1" page="1" pageScale="1" pageWidth="1654" pageHeight="1169" math="0" shadow="0">
      <root>
        <mxCell id="WIyWlLk6GJQsqaUBKTNV-0" />
        <mxCell id="WIyWlLk6GJQsqaUBKTNV-1" parent="WIyWlLk6GJQsqaUBKTNV-0" />
        <mxCell id="IA-F71XENbrHcr9AL7dq-66" value="" style="rounded=0;whiteSpace=wrap;html=1;fillColor=#ffe6cc;strokeColor=#d79b00;" parent="WIyWlLk6GJQsqaUBKTNV-1" vertex="1">
          <mxGeometry x="467" y="-460" width="420" height="200" as="geometry" />
        </mxCell>
        <mxCell id="IA-F71XENbrHcr9AL7dq-64" value="" style="rounded=0;whiteSpace=wrap;html=1;fillColor=#ffe6cc;strokeColor=#d79b00;" parent="WIyWlLk6GJQsqaUBKTNV-1" vertex="1">
          <mxGeometry x="467" y="-720" width="1170" height="250" as="geometry" />
        </mxCell>
        <mxCell id="IA-F71XENbrHcr9AL7dq-65" value="" style="rounded=0;whiteSpace=wrap;html=1;fillColor=#fff2cc;strokeColor=#d6b656;" parent="WIyWlLk6GJQsqaUBKTNV-1" vertex="1">
          <mxGeometry x="947" y="-700" width="680" height="210" as="geometry" />
        </mxCell>
        <mxCell id="IA-F71XENbrHcr9AL7dq-0" value="Start" style="ellipse;whiteSpace=wrap;html=1;" parent="WIyWlLk6GJQsqaUBKTNV-1" vertex="1">
          <mxGeometry x="307" y="-1050" width="120" height="80" as="geometry" />
        </mxCell>
        <mxCell id="IA-F71XENbrHcr9AL7dq-58" style="edgeStyle=orthogonalEdgeStyle;rounded=0;orthogonalLoop=1;jettySize=auto;html=1;entryX=0.5;entryY=0;entryDx=0;entryDy=0;exitX=0.5;exitY=1;exitDx=0;exitDy=0;" parent="WIyWlLk6GJQsqaUBKTNV-1" source="IA-F71XENbrHcr9AL7dq-0" target="IA-F71XENbrHcr9AL7dq-2" edge="1">
          <mxGeometry relative="1" as="geometry">
            <mxPoint x="367" y="-869.9999999999999" as="sourcePoint" />
          </mxGeometry>
        </mxCell>
        <mxCell id="IA-F71XENbrHcr9AL7dq-2" value="User Input phone number" style="shape=parallelogram;perimeter=parallelogramPerimeter;whiteSpace=wrap;html=1;fixedSize=1;fillColor=#e1d5e7;strokeColor=#9673a6;" parent="WIyWlLk6GJQsqaUBKTNV-1" vertex="1">
          <mxGeometry x="307" y="-950" width="120" height="60" as="geometry" />
        </mxCell>
        <mxCell id="IA-F71XENbrHcr9AL7dq-32" style="edgeStyle=orthogonalEdgeStyle;rounded=0;orthogonalLoop=1;jettySize=auto;html=1;entryX=0.5;entryY=0;entryDx=0;entryDy=0;" parent="WIyWlLk6GJQsqaUBKTNV-1" source="IA-F71XENbrHcr9AL7dq-3" target="IA-F71XENbrHcr9AL7dq-24" edge="1">
          <mxGeometry relative="1" as="geometry" />
        </mxCell>
        <mxCell id="IA-F71XENbrHcr9AL7dq-3" value="User click on &#39;Get OTP&#39; Button" style="shape=parallelogram;perimeter=parallelogramPerimeter;whiteSpace=wrap;html=1;fixedSize=1;fillColor=#e1d5e7;strokeColor=#9673a6;" parent="WIyWlLk6GJQsqaUBKTNV-1" vertex="1">
          <mxGeometry x="297" y="-850" width="120" height="60" as="geometry" />
        </mxCell>
        <mxCell id="IA-F71XENbrHcr9AL7dq-10" value="otpRequested =&amp;gt; false" style="text;html=1;align=center;verticalAlign=middle;resizable=0;points=[];autosize=1;strokeColor=none;fillColor=none;" parent="WIyWlLk6GJQsqaUBKTNV-1" vertex="1">
          <mxGeometry x="447" y="-1050" width="140" height="30" as="geometry" />
        </mxCell>
        <mxCell id="IA-F71XENbrHcr9AL7dq-11" value="otpError =&amp;gt; false" style="text;html=1;align=center;verticalAlign=middle;resizable=0;points=[];autosize=1;strokeColor=none;fillColor=none;" parent="WIyWlLk6GJQsqaUBKTNV-1" vertex="1">
          <mxGeometry x="447" y="-1030" width="110" height="30" as="geometry" />
        </mxCell>
        <mxCell id="IA-F71XENbrHcr9AL7dq-34" style="edgeStyle=orthogonalEdgeStyle;rounded=0;orthogonalLoop=1;jettySize=auto;html=1;entryX=0;entryY=0.5;entryDx=0;entryDy=0;" parent="WIyWlLk6GJQsqaUBKTNV-1" source="IA-F71XENbrHcr9AL7dq-12" target="IA-F71XENbrHcr9AL7dq-15" edge="1">
          <mxGeometry relative="1" as="geometry" />
        </mxCell>
        <mxCell id="IA-F71XENbrHcr9AL7dq-12" value="handleOtpRequest()" style="rounded=0;whiteSpace=wrap;html=1;fillColor=#dae8fc;strokeColor=#6c8ebf;" parent="WIyWlLk6GJQsqaUBKTNV-1" vertex="1">
          <mxGeometry x="477" y="-680" width="120" height="60" as="geometry" />
        </mxCell>
        <mxCell id="IA-F71XENbrHcr9AL7dq-49" style="edgeStyle=orthogonalEdgeStyle;rounded=0;orthogonalLoop=1;jettySize=auto;html=1;entryX=0;entryY=0.5;entryDx=0;entryDy=0;" parent="WIyWlLk6GJQsqaUBKTNV-1" source="IA-F71XENbrHcr9AL7dq-15" target="IA-F71XENbrHcr9AL7dq-16" edge="1">
          <mxGeometry relative="1" as="geometry" />
        </mxCell>
        <mxCell id="IA-F71XENbrHcr9AL7dq-15" value="&lt;span style=&quot;text-wrap: nowrap;&quot;&gt;otpRequested =&amp;gt; true&lt;/span&gt;" style="rounded=0;whiteSpace=wrap;html=1;" parent="WIyWlLk6GJQsqaUBKTNV-1" vertex="1">
          <mxGeometry x="641" y="-680" width="120" height="60" as="geometry" />
        </mxCell>
        <mxCell id="IA-F71XENbrHcr9AL7dq-50" style="edgeStyle=orthogonalEdgeStyle;rounded=0;orthogonalLoop=1;jettySize=auto;html=1;entryX=0;entryY=0.5;entryDx=0;entryDy=0;" parent="WIyWlLk6GJQsqaUBKTNV-1" source="IA-F71XENbrHcr9AL7dq-16" target="IA-F71XENbrHcr9AL7dq-17" edge="1">
          <mxGeometry relative="1" as="geometry" />
        </mxCell>
        <mxCell id="IA-F71XENbrHcr9AL7dq-16" value="&lt;span style=&quot;text-wrap: nowrap;&quot;&gt;startTimer()&lt;/span&gt;" style="rounded=0;whiteSpace=wrap;html=1;fillColor=#dae8fc;strokeColor=#6c8ebf;" parent="WIyWlLk6GJQsqaUBKTNV-1" vertex="1">
          <mxGeometry x="801" y="-680" width="120" height="60" as="geometry" />
        </mxCell>
        <mxCell id="IA-F71XENbrHcr9AL7dq-51" style="edgeStyle=orthogonalEdgeStyle;rounded=0;orthogonalLoop=1;jettySize=auto;html=1;entryX=0;entryY=0.5;entryDx=0;entryDy=0;" parent="WIyWlLk6GJQsqaUBKTNV-1" source="IA-F71XENbrHcr9AL7dq-17" target="IA-F71XENbrHcr9AL7dq-18" edge="1">
          <mxGeometry relative="1" as="geometry" />
        </mxCell>
        <mxCell id="IA-F71XENbrHcr9AL7dq-17" value="&lt;span style=&quot;text-wrap: nowrap;&quot;&gt;UserAuth().sendOtp()&lt;/span&gt;" style="rounded=0;whiteSpace=wrap;html=1;fillColor=#dae8fc;strokeColor=#6c8ebf;" parent="WIyWlLk6GJQsqaUBKTNV-1" vertex="1">
          <mxGeometry x="968" y="-680" width="120" height="60" as="geometry" />
        </mxCell>
        <mxCell id="IA-F71XENbrHcr9AL7dq-52" style="edgeStyle=orthogonalEdgeStyle;rounded=0;orthogonalLoop=1;jettySize=auto;html=1;entryX=0;entryY=0.5;entryDx=0;entryDy=0;" parent="WIyWlLk6GJQsqaUBKTNV-1" source="IA-F71XENbrHcr9AL7dq-18" target="IA-F71XENbrHcr9AL7dq-20" edge="1">
          <mxGeometry relative="1" as="geometry" />
        </mxCell>
        <mxCell id="IA-F71XENbrHcr9AL7dq-18" value="&lt;span style=&quot;text-wrap: nowrap;&quot;&gt;PUT mobileNumber&lt;/span&gt;" style="rounded=0;whiteSpace=wrap;html=1;" parent="WIyWlLk6GJQsqaUBKTNV-1" vertex="1">
          <mxGeometry x="1161" y="-680" width="120" height="60" as="geometry" />
        </mxCell>
        <mxCell id="IA-F71XENbrHcr9AL7dq-36" style="edgeStyle=orthogonalEdgeStyle;rounded=0;orthogonalLoop=1;jettySize=auto;html=1;entryX=1;entryY=0.5;entryDx=0;entryDy=0;" parent="WIyWlLk6GJQsqaUBKTNV-1" source="IA-F71XENbrHcr9AL7dq-19" target="IA-F71XENbrHcr9AL7dq-35" edge="1">
          <mxGeometry relative="1" as="geometry">
            <Array as="points">
              <mxPoint x="1561" y="-780" />
            </Array>
          </mxGeometry>
        </mxCell>
        <mxCell id="IA-F71XENbrHcr9AL7dq-19" value="responseBody:&lt;div&gt;userId, userName, emailAddress, mobileNo, authCode&lt;/div&gt;" style="rounded=0;whiteSpace=wrap;html=1;" parent="WIyWlLk6GJQsqaUBKTNV-1" vertex="1">
          <mxGeometry x="1501" y="-680" width="120" height="60" as="geometry" />
        </mxCell>
        <mxCell id="IA-F71XENbrHcr9AL7dq-53" style="edgeStyle=orthogonalEdgeStyle;rounded=0;orthogonalLoop=1;jettySize=auto;html=1;entryX=0.5;entryY=0;entryDx=0;entryDy=0;" parent="WIyWlLk6GJQsqaUBKTNV-1" source="IA-F71XENbrHcr9AL7dq-20" target="IA-F71XENbrHcr9AL7dq-21" edge="1">
          <mxGeometry relative="1" as="geometry" />
        </mxCell>
        <mxCell id="Xxi4vq07GPoP2uCcMhoq-1" value="false" style="edgeLabel;html=1;align=center;verticalAlign=middle;resizable=0;points=[];" parent="IA-F71XENbrHcr9AL7dq-53" vertex="1" connectable="0">
          <mxGeometry x="-0.1647" y="-1" relative="1" as="geometry">
            <mxPoint as="offset" />
          </mxGeometry>
        </mxCell>
        <mxCell id="IA-F71XENbrHcr9AL7dq-55" style="edgeStyle=orthogonalEdgeStyle;rounded=0;orthogonalLoop=1;jettySize=auto;html=1;entryX=0;entryY=0.5;entryDx=0;entryDy=0;" parent="WIyWlLk6GJQsqaUBKTNV-1" source="IA-F71XENbrHcr9AL7dq-20" target="IA-F71XENbrHcr9AL7dq-19" edge="1">
          <mxGeometry relative="1" as="geometry" />
        </mxCell>
        <mxCell id="Xxi4vq07GPoP2uCcMhoq-0" value="true" style="edgeLabel;html=1;align=center;verticalAlign=middle;resizable=0;points=[];" parent="IA-F71XENbrHcr9AL7dq-55" vertex="1" connectable="0">
          <mxGeometry x="-0.1694" y="1" relative="1" as="geometry">
            <mxPoint as="offset" />
          </mxGeometry>
        </mxCell>
        <mxCell id="IA-F71XENbrHcr9AL7dq-20" value="if response.statusCode ==200" style="rhombus;whiteSpace=wrap;html=1;" parent="WIyWlLk6GJQsqaUBKTNV-1" vertex="1">
          <mxGeometry x="1342" y="-690" width="109" height="80" as="geometry" />
        </mxCell>
        <mxCell id="IA-F71XENbrHcr9AL7dq-21" value="print error" style="rounded=0;whiteSpace=wrap;html=1;" parent="WIyWlLk6GJQsqaUBKTNV-1" vertex="1">
          <mxGeometry x="1336.5" y="-570" width="120" height="60" as="geometry" />
        </mxCell>
        <mxCell id="IA-F71XENbrHcr9AL7dq-40" style="edgeStyle=orthogonalEdgeStyle;rounded=0;orthogonalLoop=1;jettySize=auto;html=1;entryX=0.5;entryY=0;entryDx=0;entryDy=0;" parent="WIyWlLk6GJQsqaUBKTNV-1" source="IA-F71XENbrHcr9AL7dq-24" target="IA-F71XENbrHcr9AL7dq-39" edge="1">
          <mxGeometry relative="1" as="geometry" />
        </mxCell>
        <mxCell id="IA-F71XENbrHcr9AL7dq-69" value="true" style="edgeLabel;html=1;align=center;verticalAlign=middle;resizable=0;points=[];" parent="IA-F71XENbrHcr9AL7dq-40" vertex="1" connectable="0">
          <mxGeometry x="-0.3079" y="5" relative="1" as="geometry">
            <mxPoint as="offset" />
          </mxGeometry>
        </mxCell>
        <mxCell id="IA-F71XENbrHcr9AL7dq-24" value="otpActionButton" style="rhombus;whiteSpace=wrap;html=1;" parent="WIyWlLk6GJQsqaUBKTNV-1" vertex="1">
          <mxGeometry x="292" y="-680" width="130" height="80" as="geometry" />
        </mxCell>
        <mxCell id="IA-F71XENbrHcr9AL7dq-25" style="edgeStyle=orthogonalEdgeStyle;rounded=0;orthogonalLoop=1;jettySize=auto;html=1;entryX=0.003;entryY=0.671;entryDx=0;entryDy=0;entryPerimeter=0;" parent="WIyWlLk6GJQsqaUBKTNV-1" source="IA-F71XENbrHcr9AL7dq-24" target="IA-F71XENbrHcr9AL7dq-12" edge="1">
          <mxGeometry relative="1" as="geometry" />
        </mxCell>
        <mxCell id="IA-F71XENbrHcr9AL7dq-26" value="false" style="edgeLabel;html=1;align=center;verticalAlign=middle;resizable=0;points=[];" parent="IA-F71XENbrHcr9AL7dq-25" vertex="1" connectable="0">
          <mxGeometry x="-0.167" relative="1" as="geometry">
            <mxPoint as="offset" />
          </mxGeometry>
        </mxCell>
        <mxCell id="IA-F71XENbrHcr9AL7dq-37" style="edgeStyle=orthogonalEdgeStyle;rounded=0;orthogonalLoop=1;jettySize=auto;html=1;entryX=0.5;entryY=0;entryDx=0;entryDy=0;" parent="WIyWlLk6GJQsqaUBKTNV-1" source="IA-F71XENbrHcr9AL7dq-35" target="IA-F71XENbrHcr9AL7dq-24" edge="1">
          <mxGeometry relative="1" as="geometry">
            <Array as="points">
              <mxPoint x="357" y="-770" />
            </Array>
          </mxGeometry>
        </mxCell>
        <mxCell id="IA-F71XENbrHcr9AL7dq-35" value="user Enter OTP code" style="shape=parallelogram;perimeter=parallelogramPerimeter;whiteSpace=wrap;html=1;fixedSize=1;fillColor=#e1d5e7;strokeColor=#9673a6;" parent="WIyWlLk6GJQsqaUBKTNV-1" vertex="1">
          <mxGeometry x="897" y="-810" width="120" height="60" as="geometry" />
        </mxCell>
        <mxCell id="IA-F71XENbrHcr9AL7dq-45" style="edgeStyle=orthogonalEdgeStyle;rounded=0;orthogonalLoop=1;jettySize=auto;html=1;" parent="WIyWlLk6GJQsqaUBKTNV-1" source="IA-F71XENbrHcr9AL7dq-39" target="IA-F71XENbrHcr9AL7dq-41" edge="1">
          <mxGeometry relative="1" as="geometry" />
        </mxCell>
        <mxCell id="IA-F71XENbrHcr9AL7dq-39" value="handleOtpVerification" style="rounded=0;whiteSpace=wrap;html=1;fillColor=#dae8fc;strokeColor=#6c8ebf;" parent="WIyWlLk6GJQsqaUBKTNV-1" vertex="1">
          <mxGeometry x="297" y="-440" width="120" height="60" as="geometry" />
        </mxCell>
        <mxCell id="IA-F71XENbrHcr9AL7dq-46" style="edgeStyle=orthogonalEdgeStyle;rounded=0;orthogonalLoop=1;jettySize=auto;html=1;" parent="WIyWlLk6GJQsqaUBKTNV-1" source="IA-F71XENbrHcr9AL7dq-41" target="IA-F71XENbrHcr9AL7dq-42" edge="1">
          <mxGeometry relative="1" as="geometry" />
        </mxCell>
        <mxCell id="IA-F71XENbrHcr9AL7dq-48" style="edgeStyle=orthogonalEdgeStyle;rounded=0;orthogonalLoop=1;jettySize=auto;html=1;entryX=0.5;entryY=0;entryDx=0;entryDy=0;" parent="WIyWlLk6GJQsqaUBKTNV-1" source="IA-F71XENbrHcr9AL7dq-41" target="IA-F71XENbrHcr9AL7dq-44" edge="1">
          <mxGeometry relative="1" as="geometry" />
        </mxCell>
        <mxCell id="IA-F71XENbrHcr9AL7dq-41" value="userInput == authCode" style="rhombus;whiteSpace=wrap;html=1;" parent="WIyWlLk6GJQsqaUBKTNV-1" vertex="1">
          <mxGeometry x="517" y="-450" width="170" height="80" as="geometry" />
        </mxCell>
        <mxCell id="IA-F71XENbrHcr9AL7dq-68" style="edgeStyle=orthogonalEdgeStyle;rounded=0;orthogonalLoop=1;jettySize=auto;html=1;entryX=0;entryY=0.5;entryDx=0;entryDy=0;" parent="WIyWlLk6GJQsqaUBKTNV-1" source="IA-F71XENbrHcr9AL7dq-42" target="Xxi4vq07GPoP2uCcMhoq-4" edge="1">
          <mxGeometry relative="1" as="geometry" />
        </mxCell>
        <mxCell id="IA-F71XENbrHcr9AL7dq-42" value="&lt;span style=&quot;text-wrap: nowrap;&quot;&gt;otpRequested =&amp;gt; false&lt;/span&gt;&lt;div&gt;&lt;span style=&quot;text-wrap: nowrap;&quot;&gt;otpError =&amp;gt; false&lt;/span&gt;&lt;span style=&quot;text-wrap: nowrap;&quot;&gt;&lt;br&gt;&lt;/span&gt;&lt;/div&gt;" style="rounded=0;whiteSpace=wrap;html=1;" parent="WIyWlLk6GJQsqaUBKTNV-1" vertex="1">
          <mxGeometry x="747" y="-440" width="120" height="60" as="geometry" />
        </mxCell>
        <mxCell id="IA-F71XENbrHcr9AL7dq-43" value="&lt;span style=&quot;text-wrap: nowrap;&quot;&gt;Navigator =&amp;gt; &#39;/homepage&#39;&lt;/span&gt;" style="rounded=0;whiteSpace=wrap;html=1;fillColor=#d5e8d4;strokeColor=#82b366;" parent="WIyWlLk6GJQsqaUBKTNV-1" vertex="1">
          <mxGeometry x="1107" y="-440" width="160" height="60" as="geometry" />
        </mxCell>
        <mxCell id="IA-F71XENbrHcr9AL7dq-44" value="&lt;span style=&quot;text-wrap: nowrap;&quot;&gt;otpError = true&lt;/span&gt;" style="rounded=0;whiteSpace=wrap;html=1;" parent="WIyWlLk6GJQsqaUBKTNV-1" vertex="1">
          <mxGeometry x="542" y="-340" width="120" height="60" as="geometry" />
        </mxCell>
        <mxCell id="IA-F71XENbrHcr9AL7dq-59" style="edgeStyle=orthogonalEdgeStyle;rounded=0;orthogonalLoop=1;jettySize=auto;html=1;entryX=0.591;entryY=-0.028;entryDx=0;entryDy=0;entryPerimeter=0;" parent="WIyWlLk6GJQsqaUBKTNV-1" source="IA-F71XENbrHcr9AL7dq-2" target="IA-F71XENbrHcr9AL7dq-3" edge="1">
          <mxGeometry relative="1" as="geometry" />
        </mxCell>
        <mxCell id="IA-F71XENbrHcr9AL7dq-63" style="edgeStyle=orthogonalEdgeStyle;rounded=0;orthogonalLoop=1;jettySize=auto;html=1;entryX=0;entryY=0.5;entryDx=0;entryDy=0;" parent="WIyWlLk6GJQsqaUBKTNV-1" source="IA-F71XENbrHcr9AL7dq-60" target="IA-F71XENbrHcr9AL7dq-62" edge="1">
          <mxGeometry relative="1" as="geometry" />
        </mxCell>
        <mxCell id="IA-F71XENbrHcr9AL7dq-60" value="&lt;span style=&quot;text-wrap: nowrap;&quot;&gt;otpError = true&lt;/span&gt;" style="rounded=0;whiteSpace=wrap;html=1;" parent="WIyWlLk6GJQsqaUBKTNV-1" vertex="1">
          <mxGeometry x="17" y="-570" width="120" height="60" as="geometry" />
        </mxCell>
        <mxCell id="IA-F71XENbrHcr9AL7dq-62" value="error text" style="rounded=0;whiteSpace=wrap;html=1;" parent="WIyWlLk6GJQsqaUBKTNV-1" vertex="1">
          <mxGeometry x="187" y="-570" width="120" height="60" as="geometry" />
        </mxCell>
        <mxCell id="Xxi4vq07GPoP2uCcMhoq-5" style="edgeStyle=orthogonalEdgeStyle;rounded=0;orthogonalLoop=1;jettySize=auto;html=1;entryX=0;entryY=0.5;entryDx=0;entryDy=0;" parent="WIyWlLk6GJQsqaUBKTNV-1" source="Xxi4vq07GPoP2uCcMhoq-4" target="IA-F71XENbrHcr9AL7dq-43" edge="1">
          <mxGeometry relative="1" as="geometry" />
        </mxCell>
        <mxCell id="Xxi4vq07GPoP2uCcMhoq-4" value="&lt;span style=&quot;text-wrap: nowrap;&quot;&gt;stopTimer()&lt;/span&gt;" style="rounded=0;whiteSpace=wrap;html=1;fillColor=#dae8fc;strokeColor=#6c8ebf;" parent="WIyWlLk6GJQsqaUBKTNV-1" vertex="1">
          <mxGeometry x="927" y="-440" width="120" height="60" as="geometry" />
        </mxCell>
        <mxCell id="Xxi4vq07GPoP2uCcMhoq-7" style="edgeStyle=orthogonalEdgeStyle;rounded=0;orthogonalLoop=1;jettySize=auto;html=1;" parent="WIyWlLk6GJQsqaUBKTNV-1" source="Xxi4vq07GPoP2uCcMhoq-6" edge="1">
          <mxGeometry relative="1" as="geometry">
            <mxPoint x="637" y="-920" as="targetPoint" />
          </mxGeometry>
        </mxCell>
        <mxCell id="Xxi4vq07GPoP2uCcMhoq-6" value="" style="shape=parallelogram;perimeter=parallelogramPerimeter;whiteSpace=wrap;html=1;fixedSize=1;fillColor=#e1d5e7;strokeColor=#9673a6;" parent="WIyWlLk6GJQsqaUBKTNV-1" vertex="1">
          <mxGeometry x="542" y="-930" width="60" height="20" as="geometry" />
        </mxCell>
        <mxCell id="Xxi4vq07GPoP2uCcMhoq-9" value="User Input" style="text;html=1;align=center;verticalAlign=middle;whiteSpace=wrap;rounded=0;" parent="WIyWlLk6GJQsqaUBKTNV-1" vertex="1">
          <mxGeometry x="641" y="-935" width="60" height="30" as="geometry" />
        </mxCell>
        <mxCell id="Xxi4vq07GPoP2uCcMhoq-12" style="edgeStyle=orthogonalEdgeStyle;rounded=0;orthogonalLoop=1;jettySize=auto;html=1;" parent="WIyWlLk6GJQsqaUBKTNV-1" source="Xxi4vq07GPoP2uCcMhoq-11" edge="1">
          <mxGeometry relative="1" as="geometry">
            <mxPoint x="637" y="-885" as="targetPoint" />
          </mxGeometry>
        </mxCell>
        <mxCell id="Xxi4vq07GPoP2uCcMhoq-11" value="" style="rounded=0;whiteSpace=wrap;html=1;fillColor=#dae8fc;strokeColor=#6c8ebf;" parent="WIyWlLk6GJQsqaUBKTNV-1" vertex="1">
          <mxGeometry x="542" y="-900" width="55" height="30" as="geometry" />
        </mxCell>
        <mxCell id="Xxi4vq07GPoP2uCcMhoq-13" value="function invoked" style="text;html=1;align=center;verticalAlign=middle;whiteSpace=wrap;rounded=0;" parent="WIyWlLk6GJQsqaUBKTNV-1" vertex="1">
          <mxGeometry x="637" y="-900" width="106" height="30" as="geometry" />
        </mxCell>
        <mxCell id="Xxi4vq07GPoP2uCcMhoq-14" value="Legend" style="text;align=center;fontStyle=1;verticalAlign=middle;spacingLeft=3;spacingRight=3;strokeColor=none;rotatable=0;points=[[0,0.5],[1,0.5]];portConstraint=eastwest;html=1;" parent="WIyWlLk6GJQsqaUBKTNV-1" vertex="1">
          <mxGeometry x="532" y="-970" width="80" height="26" as="geometry" />
        </mxCell>
      </root>
    </mxGraphModel>
  </diagram>
</mxfile>
